# xmcd
#
# Track frame offsets:
#	150
#	20010
#	41995
#	62932
#	79852
#	96045
#	118660
#	147577
#	162802
#	178975
#
# Disc length: 2658 seconds
#
# Revision: 1
# Processed by: cddbd v1.4PL0 Copyright (c) Steve Scherf et al.
# Submitted via: EasyCDDAExtractor 5.0.7
#
DISCID=910a600a
DTITLE=Various Artist - Xin Con Goi Ten Nhau
DYEAR=1900
DGENRE=Vietnamese
TTITLE0=Don Ho - Vet Thu Tren Lung Ngua Hoang
TTITLE1=Ngoc Lan - Hoi Nguoi Tinh
TTITLE2=Don Ho - Xin Con Goi Ten Nhau
TTITLE3=Ngoc Lan - Hoang Vu
TTITLE4=Don Ho - Oi Gian Thien Ly Da Xa
TTITLE5=Don Ho - Toi Di Giua Hoang Hon
TTITLE6=Ngoc Lan - Tinh
TTITLE7=Don Ho - Lac Mat Mua Xuan
TTITLE8=Ngoc Lan - Trung Vuong Khung Cua Mua Thu
TTITLE9=Don Ho - Han Tinh Trong Mua
EXTD=
EXTT0=
EXTT1=
EXTT2=
EXTT3=
EXTT4=
EXTT5=
EXTT6=
EXTT7=
EXTT8=
EXTT9=
PLAYORDER=
